<?xml version="1.0" encoding="UTF-8"?>
<svg width="16px" height="16px" viewBox="0 0 16 16" version="1.1" xmlns="http://www.w3.org/2000/svg" xmlns:xlink="http://www.w3.org/1999/xlink">
    <title>新建-悬浮</title>
    <g id="页面-2" stroke="none" stroke-width="1" fill="none" fill-rule="evenodd">
        <g id="新建-悬浮">
            <rect id="Rectangle-2" x="0" y="0" width="16" height="16"></rect>
            <path d="M8,1.5 C9.79511719,1.5 11.4201254,2.22742751 12.596349,3.40365105 C13.7725725,4.57987458 14.5,6.20488281 14.5,8 C14.5,9.79511719 13.7725725,11.4201254 12.596349,12.596349 C11.4201254,13.7725725 9.79511719,14.5 8,14.5 C6.20488281,14.5 4.57987458,13.7725725 3.40365105,12.596349 C2.22742751,11.4201254 1.5,9.79511719 1.5,8 C1.5,6.20488281 2.22742751,4.57987458 3.40365105,3.40365105 C4.57987458,2.22742751 6.20488281,1.5 8,1.5 Z" id="Path" stroke="#2F63B9" fill-opacity="0.1" fill="#2F63B9" fill-rule="nonzero"></path>
            <path d="M10.9948002,7.51176471 L8.48601112,7.51176471 L8.48601112,4.99313725 C8.48601112,4.72 8.26589394,4.49901961 7.99382362,4.49901961 C7.72175331,4.49901961 7.50163612,4.72 7.50163612,4.99313725 L7.50163612,7.51176471 L4.97917519,7.51176471 C4.70710487,7.51176471 4.48698769,7.7327451 4.48698769,8.00588235 C4.48698769,8.27901961 4.70710487,8.5 4.97917519,8.5 L7.50163612,8.5 L7.50163612,11.004902 C7.50163612,11.2780392 7.72175331,11.4990196 7.99382362,11.4990196 C8.26589394,11.4990196 8.48601112,11.2780392 8.48601112,11.004902 L8.48601112,8.5 L10.9948002,8.5 C11.2668705,8.5 11.4869877,8.27901961 11.4869877,8.00588235 C11.4869877,7.7327451 11.2668705,7.51176471 10.9948002,7.51176471 Z" id="Path" fill="#2F63B9" fill-rule="nonzero"></path>
        </g>
    </g>
</svg>