<?xml version="1.0" encoding="UTF-8"?>
<svg width="16px" height="16px" viewBox="0 0 16 16" version="1.1" xmlns="http://www.w3.org/2000/svg" xmlns:xlink="http://www.w3.org/1999/xlink">
    <title>新建任务</title>
    <g id="页面-1" stroke="none" stroke-width="1" fill="none" fill-rule="evenodd">
        <g id="01-任务分配-管理员" transform="translate(-201.000000, -60.000000)">
            <g id="编组-4备份" transform="translate(0.000000, 48.000000)">
                <g id="新建任务" transform="translate(201.000000, 12.000000)">
                    <rect id="Rectangle-2" x="0" y="0" width="16" height="16"></rect>
                    <path d="M8,0 C12.41875,0 16,3.58125 16,8 C16,12.41875 12.41875,16 8,16 C3.58125,16 0,12.41875 0,8 C0,3.58125 3.58125,0 8,0 Z M8.0078125,4.015625 C7.696875,4.015625 7.4453125,4.2671875 7.4453125,4.578125 L7.4453125,7.4453125 L4.5625,7.4453125 C4.28265625,7.4453125 4.05090625,7.64907812 4.00735469,7.91650469 L4,8.0078125 C4,8.31875 4.2515625,8.5703125 4.5625,8.5703125 L7.4453125,8.5703125 L7.4453125,11.421875 C7.4453125,11.7017187 7.64907812,11.9334688 7.91650469,11.9770203 L8.0078125,11.984375 C8.31875,11.984375 8.5703125,11.7328125 8.5703125,11.421875 L8.5703125,8.5703125 L11.4375,8.5703125 C11.7173438,8.5703125 11.9490937,8.36654687 11.9926453,8.09912031 L12,8.0078125 C12,7.696875 11.7484375,7.4453125 11.4375,7.4453125 L8.5703125,7.4453125 L8.5703125,4.578125 C8.5703125,4.29828125 8.36654687,4.06653125 8.09912031,4.02297969 L8.0078125,4.015625 Z" id="形状结合" fill="#1890FF" fill-rule="nonzero"></path>
                </g>
            </g>
        </g>
    </g>
</svg>