<?xml version="1.0" encoding="UTF-8"?>
<svg width="16px" height="16px" viewBox="0 0 16 16" version="1.1" xmlns="http://www.w3.org/2000/svg" xmlns:xlink="http://www.w3.org/1999/xlink">
    <title>导出</title>
    <g id="9月迭代" stroke="none" stroke-width="1" fill="none" fill-rule="evenodd">
        <g id="01-01值域明细-版本映射" transform="translate(-201.000000, -60.000000)">
            <g id="编组-14" transform="translate(0.000000, 48.000000)">
                <g id="导出" transform="translate(201.000000, 12.000000)">
                    <rect id="矩形" fill-opacity="0" fill="#FFFFFF" x="0" y="0" width="16" height="16"></rect>
                    <g id="导出-2" fill="#000000" fill-opacity="0.65" fill-rule="nonzero">
                        <path d="M8.00488962,7.04155123 L8.09330228,7.04958382 C8.26970316,7.08162559 8.41407089,7.20540209 8.47541547,7.3711259 L8.4989331,7.45725291 L8.50673993,7.5456017 L8.46312413,13.1972297 L9.46199719,12.1766773 C9.6652886,11.9776673 9.9815522,11.9787753 10.1756063,12.1771683 C10.3252912,12.3302 10.3634052,12.5555539 10.2813721,12.746675 L10.2388341,12.8261775 L10.1753087,12.9051694 L8.00488962,15.0174825 L5.82967897,12.905354 C5.67995958,12.7523095 5.64176421,12.5269451 5.7237033,12.3357416 L5.76620033,12.2561992 L5.8300669,12.1767647 C5.98400287,12.0261093 6.20529553,11.9884367 6.39090141,12.0711118 L6.46796147,12.1139336 L6.54353785,12.1772296 L7.49808023,13.2147147 L7.49847557,7.54559665 C7.49849283,7.29809665 7.67684428,7.09225955 7.91203328,7.04957353 L8.00488962,7.04155123 Z M8.00091034,0.975 C9.88485202,0.975 11.5061592,2.31735014 11.9156271,4.17354612 L11.9548182,4.37435277 L11.984,4.576 L12.2063515,4.59946801 C12.6530885,4.66182685 13.0786577,4.81699132 13.4599904,5.05459665 L13.6468637,5.1802214 L13.8257234,5.31929839 L13.9952686,5.47101378 L14.1407845,5.61942611 C14.7105881,6.23768665 15.0250077,7.04895803 15.0250077,7.90042236 C15.0250077,9.60627593 13.7627141,11.0271111 12.1286325,11.2149567 L11.9455831,11.2307062 L11.7613316,11.2359659 L10.6422496,11.2359659 C10.3579452,11.2359659 10.127471,11.0054917 10.127471,10.7211874 C10.127471,10.5025797 10.2646899,10.3125329 10.4633156,10.238681 L10.5519794,10.2143996 L10.6422496,10.2064088 L11.7630846,10.2064088 C13.0062605,10.2064088 14.0184732,9.17174276 14.0184732,7.90043717 C14.0184732,6.80465446 13.2559272,5.86496214 12.2249599,5.64613651 L12.0683634,5.61878976 L11.915236,5.60311301 C11.4831978,5.56993159 11.1213022,5.26308558 11.017917,4.84228927 L10.9833812,4.70172214 L10.9833812,4.70172214 C10.7986199,3.16333766 9.51707148,2.00455713 8.00089585,2.00455713 C6.60897396,2.00455713 5.40722326,2.98346793 5.08205532,4.34542027 L5.0446697,4.52518951 L5.01841518,4.70168346 C4.94515506,5.16095891 4.58582416,5.52159647 4.12681765,5.59652316 L4.08637065,5.60312559 L4.08637065,5.60312559 C2.90776612,5.68253317 1.98331845,6.69210137 1.98331845,7.90043717 C1.98331845,9.06030004 2.82871964,10.0315065 3.93175226,10.1852021 L4.08370749,10.2010343 L4.23870711,10.2064088 L5.35954211,10.2064088 C5.64384647,10.2064088 5.87432068,10.436883 5.87432068,10.7211874 C5.87432068,10.939795 5.73710184,11.1298418 5.53847614,11.2036938 L5.44981227,11.2279751 L5.35954211,11.2359659 L4.23870711,11.2359659 C2.43867037,11.2359659 0.974969549,9.73993177 0.974969549,7.9007702 C0.973191939,7.05347177 1.28944284,6.23779522 1.85922887,5.61945265 C2.32705695,5.11173125 2.93015395,4.7701308 3.59165398,4.63426078 L3.81421162,4.59664476 L4.016,4.576 L4.04538592,4.37319016 C4.3302607,2.69861162 5.59999622,1.3891349 7.20187568,1.05684041 L7.40379331,1.02043737 L7.60094393,0.99528102 L7.80008091,0.980098547 L8.00091034,0.975 Z" id="形状结合"></path>
                    </g>
                </g>
            </g>
        </g>
    </g>
</svg>