<?xml version="1.0" encoding="UTF-8"?>
<svg width="33px" height="48px" viewBox="0 0 33 48" version="1.1" xmlns="http://www.w3.org/2000/svg" xmlns:xlink="http://www.w3.org/1999/xlink">
    <title>编组 10备份</title>
    <defs>
        <filter color-interpolation-filters="auto" id="filter-1">
            <feColorMatrix in="SourceGraphic" type="matrix" values="0 0 0 0 1.000000 0 0 0 0 1.000000 0 0 0 0 1.000000 0 0 0 1.000000 0"></feColorMatrix>
        </filter>
    </defs>
    <g id="统一公共开发框架UI" stroke="none" stroke-width="1" fill="none" fill-rule="evenodd">
        <g filter="url(#filter-1)" id="编组-10备份">
            <g transform="translate(0.500000, -0.000180)">
                <path d="M13.4368578,0 C13.4368578,0 13.4648791,4.71519141 7.66784475,11.4394305 C1.87158875,18.1602971 -0.929762013,21.8024743 0.977501991,25.0747004 C2.90189012,28.3765019 5.95906489,28.6227036 5.95906489,28.6227036 C5.95906489,28.6227036 5.34103974,25.6877402 10.5641566,20.7538469 C15.2943062,16.2887487 19.9051059,14.0275323 13.4368578,0" id="Fill-1" fill="#002F53"></path>
                <path d="M7.37424151e-14,27.1966014 C7.37424151e-14,27.1966014 1.41948597,35.4841827 3.63057342,37.3606603 C6.55750108,39.8418757 8.36643111,40.3163783 17.8583841,41.1917046 C24.7391678,41.8231641 28.5018046,44.5409823 31.694675,48 C31.694675,48 30.4261927,39.93138 28.1178091,37.653041 C26.4378289,35.9931899 23.1904726,33.7535064 11.7658289,33.0372124 C2.56239142,32.4586772 0.104301473,27.4967652 7.37424151e-14,27.1966014" id="Fill-3" fill="#002F53"></path>
                <path d="M24.8929995,23.2959512 C23.015573,24.9757787 18.9169403,27.7522287 16.0455363,30.6059897 C16.0465741,30.6059897 16.0476119,30.6070274 16.0489092,30.6070274 C20.7113407,31.1894541 23.0586428,31.8779887 24.8343624,32.8090931 C29.7876445,28.4163767 31.8962467,24.9311563 32.2262753,21.2101114 C32.5633091,17.4050103 29.2866342,14.260944 29.2866342,14.260944 C29.2866342,14.260944 30.742963,18.0616348 24.8929995,23.2959512 Z" id="Fill-5" fill="#29BBEA"></path>
                <path d="M17.1514692,18.047781 C16.7103933,18.5617174 16.3422247,18.9350413 15.8300577,19.4287419 L22.1854423,21.3347948 C22.5702161,21.0431923 23.0281567,20.6182414 23.4004766,20.1676066 L17.1514692,18.047781 Z" id="Fill-7" fill="#002F53"></path>
                <path d="M12.1127221,21.3347948 C11.2941371,21.7958069 10.4376716,22.8851653 10.4187312,22.9046228 L19.801972,25.4203428 C20.2759988,25.0548019 20.9575908,24.4702998 21.3651968,24.1460088 L12.1127221,21.3347948 Z" id="Fill-9" fill="#29BBEA"></path>
                <path d="M9.24578074,27.2824996 L14.972243,28.6227296 C15.4109837,28.2527784 15.8564704,27.8047379 16.3009192,27.4490555 L9.94735085,25.8001005 C9.72603454,26.0556419 9.3537146,26.7273134 9.24578074,27.2824996" id="Fill-11" fill="#002F53"></path>
            </g>
        </g>
    </g>
</svg>