<?xml version="1.0" encoding="UTF-8"?>
<svg width="16px" height="16px" viewBox="0 0 16 16" version="1.1" xmlns="http://www.w3.org/2000/svg" xmlns:xlink="http://www.w3.org/1999/xlink">
    <title>任务配置</title>
    <g id="页面-1" stroke="none" stroke-width="1" fill="none" fill-rule="evenodd" fill-opacity="0.65">
        <g id="01-任务分配-管理员" transform="translate(-179.000000, -60.000000)" fill="#000000" fill-rule="nonzero">
            <g id="编组-4备份" transform="translate(0.000000, 48.000000)">
                <g id="任务配置" transform="translate(179.000000, 12.000000)">
                    <path d="M15.0966667,6.41 L15.0333333,6.01 L13.8116667,5.60166667 C13.705,5.27166667 13.5716667,4.94833333 13.4133333,4.64 L13.99,3.48833333 L13.7533333,3.15833333 C13.2733333,2.50333333 12.7,1.93 12.0483333,1.45666667 L11.72,1.22 L10.5683333,1.79666667 C10.2583333,1.63833333 9.93666667,1.505 9.60666667,1.39833333 L9.2,0.18 L8.80333333,0.118333333 C8.36166667,0.0483333333 7.98,0.015 7.6,0.015 C7.23,0.015 6.84666667,0.0483333333 6.395,0.12 L5.995,0.183333333 L5.58833333,1.40666667 C5.25166667,1.51666667 4.92833333,1.65 4.62666667,1.80333333 L3.47666667,1.225 L3.14833333,1.46166667 C2.495,1.935 1.92166667,2.50666667 1.445,3.16333333 L1.20833333,3.49333333 L1.785,4.645 C1.62833333,4.95333333 1.495,5.275 1.38833333,5.605 L0.166666667,6.01 L0.103333333,6.41 C0.0333333333,6.85166667 0,7.245 0,7.61666667 C0,7.99 0.0333333333,8.38333333 0.103333333,8.82166667 L0.166666667,9.22166667 L1.38833333,9.63 C1.495,9.96 1.62833333,10.2833333 1.78666667,10.5916667 L1.21333333,11.74 L1.45,12.0666667 C1.69666667,12.41 1.95166667,12.7116667 2.22833333,12.99 C2.48666667,13.25 2.78833333,13.505 3.15,13.77 L3.47833333,14.0066667 L4.62833333,13.43 C4.93833333,13.5883333 5.26,13.7233333 5.59,13.8283333 L5.99666667,15.0516667 L6.39666667,15.115 C6.835,15.185 7.22833333,15.2183333 7.6,15.2183333 C7.97166667,15.2183333 8.365,15.185 8.805,15.115 L9.205,15.0516667 L9.61166667,13.8283333 C9.93833333,13.7216667 10.26,13.5883333 10.5716667,13.4316667 L11.7233333,14.0083333 L12.0516667,13.7716667 C12.41,13.5133333 12.7116667,13.2583333 12.9733333,12.9916667 C13.245,12.72 13.4983333,12.4166667 13.7516667,12.0683333 L13.9883333,11.7383333 L13.4116667,10.5866667 C13.57,10.2783333 13.7033333,9.95666667 13.81,9.625 L15.0316667,9.21666667 L15.095,8.81666667 C15.165,8.37833333 15.1983333,7.985 15.1983333,7.61333333 C15.2033333,7.245 15.17,6.85 15.0966667,6.41 Z M14.005,7.60333333 L14.005,7.61166667 C14.005,7.83666667 13.99,8.065 13.9616667,8.31 L13.3716667,8.50666667 L12.85,8.68333333 L12.6883333,9.20833333 C12.5966667,9.51166667 12.475,9.80666667 12.3266667,10.0866667 L12.07,10.5716667 L12.5933333,11.6166667 C12.44,11.81 12.2883333,11.9816667 12.13,12.14 L12.1266667,12.1433333 C11.9716667,12.3 11.8,12.4516667 11.6066667,12.6033333 L10.565,12.0816667 L10.0816667,12.3333333 C9.79666667,12.4816667 9.49666667,12.605 9.19166667,12.7016667 L8.67,12.865 L8.5,13.3816667 L8.30333333,13.9716667 C8.06,14.0016667 7.83,14.015 7.605,14.015 C7.38166667,14.015 7.15166667,14 6.90666667,13.9716667 L6.71,13.3816667 L6.53833333,12.86 L6.01333333,12.6983333 C5.70333333,12.6033333 5.40833333,12.4816667 5.135,12.3366667 L4.64833333,12.0833333 L4.15666667,12.3283333 L3.60166667,12.605 C3.40833333,12.4516667 3.23666667,12.3 3.07833333,12.1416667 C2.91666667,11.98 2.765,11.8083333 2.615,11.6183333 L3.135,10.5766667 L2.88166667,10.0933333 C2.73,9.80333333 2.60666667,9.50666667 2.51666667,9.21 L2.355,8.685 L1.245,8.31666667 C1.215,8.07333333 1.20166667,7.84333333 1.20166667,7.61833333 C1.20166667,7.39333333 1.21666667,7.165 1.245,6.92 L2.35166667,6.55166667 L2.51333333,6.02833333 C2.60666667,5.72666667 2.73,5.42833333 2.87833333,5.14166667 L3.13166667,4.65833333 L2.88833333,4.17 L2.61166667,3.615 C2.90333333,3.25166667 3.235,2.92 3.59833333,2.62833333 L4.64166667,3.15 L5.12666667,2.895 C5.40666667,2.74833333 5.705,2.625 6.01333333,2.52833333 L6.535,2.365 L6.70833333,1.84666667 L6.905,1.25666667 C7.15666667,1.22833333 7.385,1.21333333 7.60166667,1.21333333 C7.825,1.21333333 8.055,1.22833333 8.29833333,1.25666667 L8.66833333,2.36166667 L9.19,2.52333333 C9.49333333,2.61833333 9.79166667,2.74166667 10.0766667,2.88833333 L10.56,3.14166667 L11.6016667,2.62 C11.965,2.91166667 12.2983333,3.24333333 12.5933333,3.60833333 L12.0733333,4.65 L12.3233333,5.13166667 C12.4716667,5.41833333 12.5966667,5.71833333 12.6916667,6.02333333 L12.855,6.545 L13.3733333,6.71833333 L13.9633333,6.915 C13.995,7.165 14.0083333,7.39 14.005,7.60333333 Z M7.60333333,4.71166667 C6.00166667,4.71166667 4.69833333,6.015 4.69833333,7.61666667 C4.69833333,9.21833333 6.00166667,10.5216667 7.60333333,10.5216667 C9.205,10.5216667 10.5083333,9.21833333 10.5083333,7.61666667 C10.5083333,6.015 9.205,4.71166667 7.60333333,4.71166667 Z M8.80833333,8.82166667 C8.48666667,9.14333333 8.05833333,9.32166667 7.60333333,9.32166667 C7.14833333,9.32166667 6.72,9.145 6.39833333,8.82166667 C6.07666667,8.5 5.89833333,8.07166667 5.89833333,7.61666667 C5.89833333,7.16166667 6.075,6.73333333 6.39833333,6.41166667 C6.72,6.09 7.14833333,5.91166667 7.60333333,5.91166667 C8.05833333,5.91166667 8.48666667,6.08833333 8.80833333,6.41166667 C9.13,6.735 9.30833333,7.16166667 9.30833333,7.61666667 C9.30833333,8.07166667 9.13,8.5 8.80833333,8.82166667 Z" id="Shape"></path>
                </g>
            </g>
        </g>
    </g>
</svg>