<?xml version="1.0" encoding="UTF-8"?>
<svg width="12px" height="11px" viewBox="0 0 12 11" version="1.1" xmlns="http://www.w3.org/2000/svg" xmlns:xlink="http://www.w3.org/1999/xlink">
    <title>icon_zhankai </title>
    <g id="应用" stroke="none" stroke-width="1" fill="none" fill-rule="evenodd">
        <g id="元数据管理平台" transform="translate(-762.000000, -203.000000)" fill="#2F63B9">
            <g id="编组-27" transform="translate(762.000000, 199.000000)">
                <g id="icon_zhankai-" transform="translate(0.000000, 4.000000)">
                    <path d="M5.33087778,11 C5.15386119,11.0003126 4.98508666,10.9250269 4.86680425,10.7929817 C4.74852184,10.6609365 4.6919282,10.4846311 4.71119065,10.3082009 C4.72866904,10.1432126 4.81141372,9.99214545 4.94089487,9.8888293 L10.3826564,5.50003729 L4.97175066,1.13788568 C4.78067471,1.00480619 4.67945546,0.776082557 4.70925943,0.544738198 C4.73906341,0.313393839 4.89492601,0.117965028 5.11345688,0.0379339526 C5.33198776,-0.0420971232 5.57678504,0.0066007443 5.74828807,0.164221811 L11.7668815,5.01019757 C11.9142547,5.12877649 12,5.30800038 12,5.49745918 C12,5.68691798 11.9142547,5.86614187 11.7668815,5.9847208 L5.72257491,10.8624932 C5.61111455,10.9511293 5.47313911,10.9995634 5.33087778,11 Z M0.62451258,10.999996 C0.359817304,11.0009384 0.123495674,10.8338859 0.0354597952,10.5835989 C-0.0525760835,10.3333119 0.0269447432,10.0545778 0.233672563,9.8888293 L5.67543412,5.50003729 L0.257671511,1.13788568 C0.0509210017,0.971538997 -0.0282279051,0.692249059 0.0603923619,0.441753745 C0.149012629,0.191258431 0.385999184,0.0244022147 0.651082844,0.0258540515 C0.792974782,0.0262476934 0.930510834,0.075042769 1.04106576,0.164221811 L7.06051628,5.01019757 C7.20759818,5.12895723 7.29312392,5.30811476 7.29312392,5.49745918 C7.29312392,5.6868036 7.20759818,5.86596113 7.06051628,5.9847208 L1.0153526,10.8624932 C0.904155438,10.9510067 0.766491257,10.9994374 0.62451258,10.999996 Z" id="形状"></path>
                </g>
            </g>
        </g>
    </g>
</svg>