<?xml version="1.0" encoding="UTF-8"?>
<svg width="36px" height="36px" viewBox="0 0 36 36" version="1.1" xmlns="http://www.w3.org/2000/svg" xmlns:xlink="http://www.w3.org/1999/xlink">
    <title>业务模型</title>
    <g id="9月迭代" stroke="none" stroke-width="1" fill="none" fill-rule="evenodd">
        <g id="00-首页" transform="translate(-852.000000, -117.000000)">
            <g id="编组-2" transform="translate(16.000000, 105.000000)">
                <g id="编组-6备份-8" transform="translate(672.000000, 0.000000)">
                    <g id="业务模型" transform="translate(164.000000, 12.000000)">
                        <rect id="矩形备份-9" fill="#3BC8AF" x="0" y="0" width="36" height="36" rx="15"></rect>
                        <g id="编组-4" transform="translate(10.000000, 9.000000)" fill="#FFFFFF" fill-rule="nonzero" stroke="#FFFFFF" stroke-width="0.2">
                            <path d="M6.22499999,6.31954164 L11.695,6.31954164 C12.040178,6.31954164 12.32,6.59936367 12.32,6.94454164 C12.32,7.2897196 12.040178,7.56954164 11.695,7.56954164 L6.22499999,7.56954164 C5.87982202,7.56954164 5.59999999,7.2897196 5.59999999,6.94454164 C5.59999999,6.59936367 5.87982202,6.31954164 6.22499999,6.31954164 Z" id="路径"></path>
                            <path d="M6.22499999,3.36000001 L11.695,3.36000001 C12.040178,3.36000001 12.32,3.63982204 12.32,3.98500001 C12.32,4.33017798 12.040178,4.61000001 11.695,4.61000001 L6.22499999,4.61000001 C5.87982202,4.61000001 5.59999999,4.33017798 5.59999999,3.98500001 C5.59999999,3.63982204 5.87982202,3.36000001 6.22499999,3.36000001 Z" id="路径"></path>
                            <path d="M4.47999999,10.08 L5.59999999,10.08 L5.59999999,11.2 L3.55271368e-15,11.2 L3.55271368e-15,10.08 L1.12,10.08 L1.12,3.24 C1.12,2.68771525 1.56771525,2.24 2.12,2.24 L3.35999999,2.24 L3.35999999,2.24 L3.35999999,1 C3.35999999,0.44771525 3.80771524,1.47259025e-12 4.35999999,1.47259982e-12 L13.56,1.47259982e-12 L13.56,1.47259982e-12 C14.1122847,1.47259982e-12 14.56,0.44771525 14.56,1 L14.56,10.08 L15.68,10.08 L15.68,11.2 L10.08,11.2 L10.08,10.08 L13.44,10.08 L13.44,1.12 L4.47999999,1.12 L4.47999999,10.08 Z M3.35999999,3.36 L2.24,3.36 L2.24,10.08 L3.35999999,10.08 L3.35999999,3.36 Z" id="形状"></path>
                            <polygon id="路径" points="8.96 12.32 8.96 10.08 10.08 10.08 10.08 13.44 5.59999999 13.44 5.59999999 10.08 6.71999999 10.08 6.71999999 12.32"></polygon>
                            <polygon id="路径" points="14.56 16.8 14.56 11.2 15.68 11.2 15.68 17.92 -2.43005616e-14 17.92 -2.43005616e-14 11.2 1.12 11.2 1.12 16.8"></polygon>
                        </g>
                    </g>
                </g>
            </g>
        </g>
    </g>
</svg>