<?xml version="1.0" encoding="UTF-8"?>
<svg width="36px" height="36px" viewBox="0 0 36 36" version="1.1" xmlns="http://www.w3.org/2000/svg" xmlns:xlink="http://www.w3.org/1999/xlink">
    <title>数据元</title>
    <g id="9月迭代" stroke="none" stroke-width="1" fill="none" fill-rule="evenodd">
        <g id="00-首页" transform="translate(-180.000000, -117.000000)">
            <g id="编组-2" transform="translate(16.000000, 105.000000)">
                <g id="数据元" transform="translate(164.000000, 12.000000)">
                    <rect id="矩形备份-8" fill="#4786FF" x="0" y="0" width="36" height="36" rx="15"></rect>
                    <path d="M18,9 C15.525,9 13.275,9.3375 11.7,10.0125 C9.9,10.8 9,11.7 9,12.7125 L9,23.175 C9,24.1875 9.9,25.2 11.7,25.875 C13.275,26.6625 15.525,27 18,27 C20.475,27 22.725,26.6625 24.3,25.9875 C25.9875,25.3125 27,24.3 27,23.2875 L27,12.7125 C27,11.7 26.1,10.8 24.3,10.0125 C22.725,9.3375 20.475,9 18,9 Z M18,15.4125 C16.0875,15.4125 14.175,15.1875 12.7125,14.625 C11.025,14.175 10.2375,13.5 10.2375,12.7125 C10.2375,12.0375 11.1375,11.3625 12.7125,10.8 C14.175,10.35 16.0875,10.125 18,10.125 C19.8,10.125 21.825,10.4625 23.2875,10.9125 C24.8625,11.475 25.7625,12.15 25.7625,12.825 C25.7625,13.5 24.975,14.175 23.2875,14.625 C21.825,15.1875 19.8,15.4125 18,15.4125 Z M18,18.675 C16.0875,18.675 14.175,18.3375 12.6,17.8875 C11.025,17.325 10.125,16.65 10.125,15.975 L10.125,14.7375 C11.25,15.1875 12.0375,15.75 13.275,15.975 C14.7375,16.3125 16.3125,16.5375 18,16.5375 C19.6875,16.5375 21.2625,16.3125 22.725,15.975 C23.9625,15.75 24.75,15.1875 25.875,14.7375 L25.875,16.0875 C25.875,16.65 24.975,17.325 23.4,17.8875 C21.9375,18.3375 19.9125,18.675 18,18.675 Z M18,22.275 C16.0875,22.275 14.175,21.9375 12.6,21.4875 C11.025,21.0375 10.125,20.3625 10.125,19.575 L10.125,17.8875 C11.25,18.45 12.0375,18.9 13.275,19.2375 C14.7375,19.575 16.3125,19.8 18,19.8 C19.6875,19.8 21.2625,19.575 22.725,19.2375 C23.9625,18.9 24.75,18.45 25.875,17.8875 L25.875,19.575 C25.875,20.3625 24.975,21.0375 23.4,21.4875 C21.9375,21.9375 19.9125,22.275 18,22.275 Z M12.6,25.0875 C11.025,24.6375 10.125,23.9625 10.125,23.2875 L10.125,21.6 C11.25,22.1625 12.0375,22.6125 13.275,22.95 C14.625,23.2875 16.3125,23.5125 17.8875,23.5125 C19.575,23.5125 21.15,23.2875 22.6125,22.95 C23.9625,22.6125 24.75,22.1625 25.875,21.6 L25.875,23.2875 C25.875,23.9625 24.975,24.6375 23.4,25.2 C21.9375,25.65 19.8,25.875 18,25.875 C16.0875,25.875 14.175,25.5375 12.6,25.0875 Z" stroke="#FFFFFF" stroke-width="0.2" fill="#FFFFFF" fill-rule="nonzero"></path>
                </g>
            </g>
        </g>
    </g>
</svg>