<?xml version="1.0" encoding="UTF-8"?>
<svg width="36px" height="36px" viewBox="0 0 36 36" version="1.1" xmlns="http://www.w3.org/2000/svg" xmlns:xlink="http://www.w3.org/1999/xlink">
    <title>文献库</title>
    <g id="9月迭代" stroke="none" stroke-width="1" fill="none" fill-rule="evenodd">
        <g id="00-首页" transform="translate(-1302.000000, -117.000000)">
            <g id="编组-2" transform="translate(16.000000, 105.000000)">
                <g id="编组-6备份-16" transform="translate(1121.000000, 0.000000)">
                    <g id="文献库" transform="translate(165.000000, 12.000000)">
                        <g id="业务模型备份-2" fill="#0DC4EA">
                            <rect id="矩形备份-9" x="0" y="0" width="36" height="36" rx="15"></rect>
                        </g>
                        <g transform="translate(9.000000, 10.000000)" fill="#FFFFFF" fill-rule="nonzero" stroke="#FFFFFF" stroke-width="0.2">
                            <path d="M0.611178791,3.40268718 C0.736946925,3.40268718 0.852315002,3.44862137 0.941052538,3.52488242 C1.02900612,3.60046975 1.09085092,3.70582094 1.11067988,3.8257666 L1.11067988,3.8257666 L1.11716383,13.5469027 L7.07420676,13.5469025 C7.66172189,13.5483073 8.22149129,13.79703 8.61631245,14.2321073 C8.6418563,14.2602557 8.66655695,14.2890157 8.69045247,14.3182299 C8.7142621,14.2889351 8.73892577,14.26021 8.76443085,14.232095 C9.13098801,13.828028 9.63985033,13.584694 10.1749272,13.5511414 L10.1749272,13.5511414 L16.2636349,13.546832 L16.2636349,3.88662768 C16.8759694,3.40217064 17.0119751,3.42482387 17.1060049,3.50845166 C17.1950502,3.58764636 17.2560024,3.69779428 17.2718107,3.82204309 L17.2718107,3.82204309 L17.2758853,13.654528 C17.2758853,13.8988593 17.184839,14.1217814 17.0355573,14.2890742 C16.8858818,14.4568081 16.6775968,14.5686573 16.4528697,14.5888366 L16.4528697,14.5888366 L10.3062862,14.5926544 C10.0722839,14.5926544 9.85505181,14.6671945 9.67582214,14.7944758 C9.49207985,14.9249618 9.34834815,15.1109917 9.2678307,15.3288489 C9.23763586,15.4105703 9.18491741,15.4789123 9.11862171,15.5297688 C9.05069425,15.5818771 8.96855419,15.6157156 8.88128597,15.627015 C8.63676187,15.6284146 8.4610694,15.6018828 8.33594773,15.549533 C8.21543522,15.4991116 8.14801831,15.4238917 8.11289824,15.3288404 C8.03846591,15.1274478 7.91000727,14.9532401 7.74585065,14.8249831 C7.58433744,14.6987914 7.38832403,14.6170356 7.16593222,14.5968668 L7.16593222,14.5968668 L1.01443505,14.5926544 C0.778261704,14.5926544 0.563058682,14.4992687 0.401494103,14.3468282 C0.237550886,14.1921433 0.128704834,13.9767258 0.10896982,13.7439329 L0.10896982,13.7439329 L0.105192214,3.89032062 C0.110221313,3.75423193 0.168627168,3.63232357 0.259821143,3.54443738 C0.351015117,3.45655119 0.474997212,3.40268718 0.611178791,3.40268718 Z" id="路径"></path>
                            <path d="M7.07444588,0.0144722757 C7.6799096,0.0118123899 8.26147935,0.250573045 8.69036604,0.677948713 C9.06451147,0.30189437 9.58208913,0.0548232894 10.1604716,0.0190375275 L10.3062862,0.0144722757 L14.2428944,0.0144722757 C14.6728668,0.0144722757 15.0262172,0.342598391 15.0663,0.762068651 L15.0700867,0.841732789 L15.0700867,11.9062571 L10.3062862,11.9062571 C9.88243287,11.9062571 9.50613759,12.1368415 9.36234828,12.4756085 L9.33516245,12.5498127 L9.2962844,12.9836751 L8.08444768,12.9836751 L8.04515603,12.5498127 C7.93591152,12.1962155 7.58059015,11.942058 7.16447614,11.9097418 L7.07444588,11.9062571 L2.31064539,11.9062571 L2.31064539,0.841732789 C2.31064539,0.411760378 2.63870328,0.0584099958 3.05817354,0.0183271482 L3.13783768,0.0144722757 L7.07444588,0.0144722757 Z M13.8578364,1.2607057 L10.3062862,1.2607057 C9.78012296,1.2607057 9.34692695,1.60269227 9.30041802,2.03789201 L9.2962844,2.11560894 L9.2962844,10.8879834 C9.55684998,10.762132 9.84658674,10.6848992 10.1522114,10.6654011 L10.3062862,10.6605055 L13.85825,10.6605055 L13.8578364,1.2607057 Z M7.07444588,1.2607057 L3.5228957,1.2607057 L3.5228957,10.6605055 L7.07444588,10.6605055 C7.37402658,10.6594067 7.67049653,10.7163832 7.9475906,10.8277717 L8.08444768,10.8879834 L8.08444768,2.11560894 C8.08444768,1.67030375 7.68011404,1.303578 7.16621189,1.26420509 L7.07444588,1.2607057 Z" id="形状结合"></path>
                        </g>
                    </g>
                </g>
            </g>
        </g>
    </g>
</svg>