<?xml version="1.0" encoding="UTF-8"?>
<svg width="24px" height="24px" viewBox="0 0 24 24" version="1.1" xmlns="http://www.w3.org/2000/svg" xmlns:xlink="http://www.w3.org/1999/xlink">
    <title>系统日志</title>
    <g id="9月迭代" stroke="none" stroke-width="1" fill="none" fill-rule="evenodd">
        <g id="00-首页" transform="translate(-1326.000000, -56.000000)">
            <g id="编组-14" transform="translate(0.000000, 48.000000)">
                <g id="系统日志" transform="translate(1326.000000, 8.000000)">
                    <rect id="矩形" fill-opacity="0" fill="#FFFFFF" x="0" y="0" width="24" height="24"></rect>
                    <path d="M12,1.45 C17.8265205,1.45 22.55,6.17347951 22.55,12 C22.55,17.8265205 17.8265205,22.55 12,22.55 C6.17347951,22.55 1.45,17.8265205 1.45,12 C1.45,6.17347951 6.17347951,1.45 12,1.45 Z M12,3.05 C7.05698924,3.05 3.05,7.05698924 3.05,12 C3.05,16.9430108 7.05698924,20.95 12,20.95 C16.9430108,20.95 20.95,16.9430108 20.95,12 C20.95,7.05698924 16.9430108,3.05 12,3.05 Z" id="形状结合" fill="#595959" fill-rule="nonzero"></path>
                    <path d="M11.107,11.888 C11.1078383,12.4257965 11.4024963,12.8669488 11.8461914,12.8706569 L18.6378809,12.8669488 C19.1269531,12.8669488 19.4761035,12.446701 19.4761035,11.9931487 C19.4761035,11.5395963 19.0280457,11.184 18.5697151,11.1854547 L12.717,11.184 L12.7876489,6.87178152 C12.7876489,6.37886047 12.453543,5.96293551 11.9818908,5.96293551 C11.5102386,5.96293551 11.107,6.35220337 11.107,6.82776121 L11.107,11.888 Z" id="路径" fill="#595959" fill-rule="nonzero"></path>
                </g>
            </g>
        </g>
    </g>
</svg>