<?xml version="1.0" encoding="UTF-8"?>
<svg width="36px" height="36px" viewBox="0 0 36 36" version="1.1" xmlns="http://www.w3.org/2000/svg" xmlns:xlink="http://www.w3.org/1999/xlink">
    <title>主索引</title>
    <g id="9月迭代" stroke="none" stroke-width="1" fill="none" fill-rule="evenodd">
        <g id="00-首页" transform="translate(-628.000000, -117.000000)">
            <g id="编组-2" transform="translate(16.000000, 105.000000)">
                <g id="编组-6备份-13" transform="translate(448.000000, 0.000000)">
                    <g id="主索引" transform="translate(164.000000, 12.000000)">
                        <rect id="矩形备份-9" fill="#9892FF" x="0" y="0" width="36" height="36" rx="15"></rect>
                        <path d="M21.1977807,17.7401806 C23.1420845,17.7401806 24.681325,19.2547437 24.681325,21.0799864 C24.681325,21.7790156 24.4516541,22.4465884 24.0513706,22.9977728 L23.9117047,23.1770738 L25.5319579,24.7693068 C25.7749959,25.0023165 25.7749959,25.3518311 25.5319579,25.5848408 C25.4104389,25.7013457 25.2484136,25.7401806 25.0863883,25.7401806 C24.956768,25.7401806 24.8271478,25.7153262 24.7182668,25.645734 L24.6408187,25.5848408 L22.9395528,23.9537728 C22.4534769,24.2644525 21.845882,24.4197923 21.1977807,24.4197923 C19.2534769,24.4197923 17.7142364,22.9052292 17.7142364,21.0799864 C17.7142364,19.2159088 19.2939832,17.7401806 21.1977807,17.7401806 Z M15.7123329,24.1578385 C16.078825,24.1578385 16.3995056,24.4785191 16.3995056,24.8450112 C16.3995056,25.2115034 16.078825,25.532184 15.7123329,25.532184 L15.7123329,25.532184 L9.68717277,25.532184 C9.32068063,25.532184 9,25.2115034 9,24.8450112 C9,24.4785191 9.32068063,24.1578385 9.68717277,24.1578385 L9.68717277,24.1578385 Z M21.238287,18.9052292 C19.9825908,18.9052292 18.9699326,19.8761029 18.9699326,21.0799864 C18.9699326,22.245035 19.9825908,23.2159088 21.238287,23.2547437 C22.4939832,23.2547437 23.5066414,22.2838699 23.5066414,21.0799864 C23.5066414,19.8761029 22.4939832,18.9052292 21.238287,18.9052292 Z M15.7123329,19.7263831 C16.078825,19.7263831 16.3995056,20.0470637 16.3995056,20.4135559 C16.3995056,20.780048 16.078825,21.1007286 15.7123329,21.1007286 L15.7123329,21.1007286 L9.68717277,21.1007286 C9.32068063,21.1007286 9,20.780048 9,20.4135559 C9,20.0470637 9.32068063,19.7263831 9.68717277,19.7263831 L9.68717277,19.7263831 Z M25.5319579,14.8109885 C25.89845,14.8109885 26.2191307,15.1316692 26.2191307,15.4981613 C26.2191307,15.8646535 25.89845,16.1853341 25.5319579,16.1853341 L25.5319579,16.1853341 L9.68717277,16.1853341 C9.32068063,16.1853341 9,15.8646535 9,15.4981613 C9,15.1316692 9.32068063,14.8109885 9.68717277,14.8109885 L9.68717277,14.8109885 Z M25.5319579,10 C25.89845,10 26.2191307,10.3206806 26.2191307,10.6871728 C26.2191307,11.0536649 25.89845,11.3743455 25.5319579,11.3743455 L25.5319579,11.3743455 L9.68717277,11.3743455 C9.32068063,11.3743455 9,11.0536649 9,10.6871728 C9,10.3206806 9.32068063,10 9.68717277,10 L9.68717277,10 Z" id="形状结合" stroke="#FFFFFF" stroke-width="0.2" fill="#FFFFFF" fill-rule="nonzero"></path>
                    </g>
                </g>
            </g>
        </g>
    </g>
</svg>