<?xml version="1.0" encoding="UTF-8"?>
<svg width="24px" height="24px" viewBox="0 0 24 24" version="1.1" xmlns="http://www.w3.org/2000/svg" xmlns:xlink="http://www.w3.org/1999/xlink">
    <title>任务列表</title>
    <g id="9月迭代" stroke="none" stroke-width="1" fill="none" fill-rule="evenodd">
        <g id="00-首页" transform="translate(-1288.000000, -56.000000)">
            <g id="编组-14" transform="translate(0.000000, 48.000000)">
                <g id="任务列表" transform="translate(1288.000000, 8.000000)">
                    <rect id="矩形" fill-opacity="0" fill="#FFFFFF" x="0" y="0" width="24" height="24"></rect>
                    <path d="M12.018229,1.45 C13.2389131,1.45 14.241376,2.40329273 14.3227953,3.60572812 L14.3281342,3.76392256 L14.2950577,4.8219282 C16.8900285,5.75534124 18.6812785,8.18038081 18.7418653,11.0117391 L18.7710907,14.3541201 C18.7710907,14.8130561 18.9017223,15.4862061 19.1422803,16.0879256 C19.4861218,16.9480479 20.0115932,17.6195871 20.7043176,18.0849354 C20.9895019,18.2765014 21.0875887,18.6603151 21.0161771,18.9613552 C20.9447655,19.2623954 20.6780687,19.4640939 20.3825799,19.5072073 L20.2698287,19.5153754 L15.7201049,19.4749674 C15.3735762,21.2477696 13.8128989,22.55 11.9895669,22.55 C10.2313583,22.55 8.71739241,21.3391295 8.34478217,19.6993038 L8.30812355,19.5153754 L3.73013966,19.5153754 C3.38674363,19.5153321 3.05865614,19.2919816 2.98383109,18.9613423 C2.90900604,18.630703 3.0104619,18.2765172 3.29560908,18.0849127 C3.98834914,17.6195539 4.51381298,16.9480301 4.8576474,16.0879025 C5.06811978,15.5613931 5.19443971,14.9801936 5.22273106,14.5356773 L5.22881373,14.3540966 L5.20581846,11.2283362 C5.20581846,8.40680356 6.93596304,5.91509127 9.46856932,4.94223149 L9.70832381,4.85551194 L9.70832381,3.76392256 C9.70832381,2.48798981 10.7444717,1.45 12.018229,1.45 Z M14.1221082,19.4153989 L9.85707231,19.4153989 L9.91039675,19.5870081 C10.2272915,20.4819591 11.0556918,21.0472319 11.9895669,21.0472319 C12.9234465,21.0472319 13.7518567,20.4819548 14.1082571,19.6420758 L14.1694613,19.4814514 L14.1221082,19.4153989 Z M11.9991209,5.90521793 C9.21117376,5.90521793 6.91405184,8.06016332 6.70177292,10.8121882 L6.68916127,11.0366031 L6.68913003,14.3540732 L6.68427256,14.563152 C6.65802704,15.1390053 6.52273104,15.8576916 6.21329088,16.6317616 C6.05791952,17.0204351 5.86862898,17.3862182 5.64820069,17.7245507 L5.47708461,17.9730819 L18.4823802,18.0524866 L18.2936818,17.6942972 C18.1077517,17.3404162 17.9322771,16.9961565 17.7866134,16.6317846 C17.4771733,15.857715 17.3418774,15.1390288 17.3156318,14.5631755 L17.3107744,14.3540966 L17.3107744,11.0820966 L17.3002983,10.8618359 C17.1115014,8.08710216 14.8050776,5.90521793 11.9991209,5.90521793 Z M12.018229,2.91291228 C11.549704,2.91291228 11.1686401,3.29465356 11.1686401,3.76392256 L11.1686401,3.76392256 L11.1686167,4.51834291 L11.3945358,4.52745029 C11.4669414,4.52882151 11.5367357,4.52878925 11.6047868,4.52813681 L11.6047868,4.52813681 L11.9991209,4.52304631 C12.270744,4.52310646 12.5421274,4.53957611 12.8117824,4.57236558 L12.8117824,4.57236558 L12.8678178,3.76392256 L12.861187,3.65731737 C12.8086751,3.23818296 12.4507136,2.91291228 12.018229,2.91291228 Z" id="形状结合" fill="#595959" fill-rule="nonzero"></path>
                </g>
            </g>
        </g>
    </g>
</svg>