<?xml version="1.0" encoding="UTF-8"?>
<svg width="36px" height="36px" viewBox="0 0 36 36" version="1.1" xmlns="http://www.w3.org/2000/svg" xmlns:xlink="http://www.w3.org/1999/xlink">
    <title>值域</title>
    <g id="9月迭代" stroke="none" stroke-width="1" fill="none" fill-rule="evenodd">
        <g id="00-首页" transform="translate(-404.000000, -117.000000)">
            <g id="编组-2" transform="translate(16.000000, 105.000000)">
                <g id="编组-6备份-10" transform="translate(224.000000, 0.000000)">
                    <g id="值域" transform="translate(164.000000, 12.000000)">
                        <rect id="矩形备份-8" fill="#12D1DA" x="0" y="0" width="36" height="36" rx="15"></rect>
                        <path d="M24.4579789,9.00000579 C24.7838717,8.99900652 25.0968358,9.12738987 25.3279761,9.35702362 C25.4925129,9.52048807 25.6065306,9.72631126 25.6586028,9.95059638 L25.6823212,10.0871917 L25.690457,10.2247346 L25.6893243,27.0250308 C25.6889649,27.0433528 25.6822094,27.0604594 25.6693856,27.0744141 L25.6456397,27.0927404 L25.6117555,27.1010824 L12.5114253,27.1010824 C11.2452612,27.1010824 10,25.9541682 10,24.6145032 L10,10.2246768 L10,10.2246768 C10.0009113,9.89881879 10.1313114,9.58668634 10.3624808,9.35702362 C10.5270005,9.19357621 10.7335548,9.08089889 10.9581868,9.03024401 L11.0949437,9.0073838 L11.2324108,9.00000579 L24.4579789,9.00000579 Z M24.5133609,23.2748383 L12.5114253,23.2748383 L12.381701,23.2809789 C11.6985422,23.3459776 11.1627404,23.9189241 11.1627404,24.6144922 C11.1656811,25.30554 11.6915232,25.8800962 12.374094,25.9475876 L12.374094,25.9475876 L12.5104684,25.9541682 L24.5133609,25.9541682 L24.5333609,23.2948383 L24.5133609,23.2748383 Z M24.4580461,10.161196 L11.2324108,10.161196 C11.21515,10.161196 11.1992445,10.1680428 11.1879954,10.1783826 L11.1750264,10.1960928 L11.1688741,10.2247327 C11.1565112,15.1427782 11.1472391,18.8313123 11.1410577,21.290335 C11.1403616,21.5672452 11.1393174,21.9826106 11.1379252,22.5364311 C11.4270228,22.3473096 11.7499925,22.2192998 12.0906986,22.161196 L12.2971216,22.134789 L12.5114253,22.1256443 L24.5215828,22.1456443 L24.5215828,10.2247327 C24.5215828,10.1894946 24.4932842,10.161196 24.4580461,10.161196 Z M21.6704903,17.6989427 C21.8759015,17.6895301 22.0698684,17.7937564 22.1753878,17.9702443 C22.2809072,18.1467322 22.2809072,18.3669283 22.1753878,18.5434162 C22.1055701,18.6601909 21.9964215,18.7461503 21.8688639,18.7876934 L21.770071,18.8103102 L21.6714058,18.8147388 L13.7209582,18.8147178 C13.4227751,18.8010542 13.1880492,18.5553262 13.1880492,18.2568303 C13.1880492,18.0271601 13.3278835,17.825533 13.5338055,17.7405567 L13.625889,17.7115385 L13.7218737,17.6989217 L21.6704903,17.6989427 Z M21.6714058,13.7072225 C21.9806985,13.7072225 22.2321366,13.9568491 22.2321366,14.2645666 C22.2321366,14.5082022 22.0735065,14.7188133 21.848061,14.7934171 L21.7605663,14.8148171 L21.6714058,14.8219107 L13.723168,14.8218688 C13.5154413,14.8353408 13.3174618,14.7321641 13.2095131,14.5541783 C13.1015643,14.3761925 13.1015643,14.1529408 13.2095131,13.974955 C13.2830321,13.8537369 13.3989086,13.7664407 13.5329734,13.7279297 L13.6365547,13.7084259 L21.6714058,13.7072225 Z" id="形状结合" stroke="#FFFFFF" stroke-width="0.2" fill="#FFFFFF" fill-rule="nonzero"></path>
                    </g>
                </g>
            </g>
        </g>
    </g>
</svg>